<svg width="64" height="64" viewBox="0 0 64 64" fill="none" xmlns="http://www.w3.org/2000/svg">
  <circle cx="32" cy="32" r="32" fill="#1a1208"/>
  <circle cx="32" cy="28" r="16" stroke="#c9853a" stroke-width="3.5" fill="none"/>
  <circle cx="32" cy="28" r="10" stroke="#c9853a" stroke-width="1.5" fill="none" opacity="0.5"/>
  <circle cx="32" cy="18" r="2.5" fill="#c9853a"/>
  <circle cx="42" cy="28" r="2.5" fill="#c9853a"/>
  <circle cx="32" cy="38" r="2.5" fill="#c9853a"/>
  <circle cx="22" cy="28" r="2.5" fill="#c9853a"/>
  <line x1="32" y1="18" x2="42" y2="28" stroke="#c9853a" stroke-width="1" opacity="0.6"/>
  <line x1="42" y1="28" x2="32" y2="38" stroke="#c9853a" stroke-width="1" opacity="0.6"/>
  <line x1="32" y1="38" x2="22" y2="28" stroke="#c9853a" stroke-width="1" opacity="0.6"/>
  <line x1="22" y1="28" x2="32" y2="18" stroke="#c9853a" stroke-width="1" opacity="0.6"/>
  <line x1="32" y1="18" x2="32" y2="38" stroke="#c9853a" stroke-width="0.8" opacity="0.3"/>
  <line x1="22" y1="28" x2="42" y2="28" stroke="#c9853a" stroke-width="0.8" opacity="0.3"/>
  <circle cx="32" cy="28" r="3.5" fill="#c9853a"/>
  <circle cx="32" cy="28" r="1.5" fill="#f5ede0"/>
  <rect x="30" y="43" width="4" height="12" rx="2" fill="#c9853a"/>
  <rect x="34" y="47" width="4" height="2.5" rx="1" fill="#c9853a"/>
  <rect x="34" y="51" width="3" height="2" rx="1" fill="#c9853a"/>
</svg>
